<?xml version="1.0" encoding="UTF-8" standalone="no"?>
<svg
   xmlns:dc="http://purl.org/dc/elements/1.1/"
   xmlns:cc="http://creativecommons.org/ns#"
   xmlns:rdf="http://www.w3.org/1999/02/22-rdf-syntax-ns#"
   xmlns:svg="http://www.w3.org/2000/svg"
   xmlns="http://www.w3.org/2000/svg"
   xmlns:sodipodi="http://sodipodi.sourceforge.net/DTD/sodipodi-0.dtd"
   xmlns:inkscape="http://www.inkscape.org/namespaces/inkscape"
   width="634.08252pt"
   height="282.61655pt"
   viewBox="0 0 634.08251 282.61653"
   version="1.1"
   id="svg4684"
   inkscape:version="0.91 r13725"
   sodipodi:docname="logo2.svg">
  <metadata
     id="metadata4774">
    <rdf:RDF>
      <cc:Work
         rdf:about="">
        <dc:format>image/svg+xml</dc:format>
        <dc:type
           rdf:resource="http://purl.org/dc/dcmitype/StillImage" />
        <dc:title />
      </cc:Work>
    </rdf:RDF>
  </metadata>
  <sodipodi:namedview
     pagecolor="#ffffff"
     bordercolor="#666666"
     borderopacity="1"
     objecttolerance="10"
     gridtolerance="10"
     guidetolerance="10"
     inkscape:pageopacity="0"
     inkscape:pageshadow="2"
     inkscape:window-width="3200"
     inkscape:window-height="1698"
     id="namedview4772"
     showgrid="false"
     inkscape:zoom="1.2686466"
     inkscape:cx="352.77282"
     inkscape:cy="500.31335"
     inkscape:window-x="0"
     inkscape:window-y="33"
     inkscape:window-maximized="1"
     inkscape:current-layer="surface103924"
     fit-margin-top="0"
     fit-margin-left="0"
     fit-margin-right="0"
     fit-margin-bottom="0" />
  <defs
     id="defs4686">
    <clipPath
       id="clip1">
      <path
         d="m 31,50 810.89062,0 0,511 L 31,561 Z m 0,0"
         id="path4689"
         inkscape:connector-curvature="0" />
    </clipPath>
    <filter
       style="color-interpolation-filters:sRGB;"
       inkscape:label="Drop Shadow"
       id="filter3580">
      <feFlood
         flood-opacity="0.498039"
         flood-color="rgb(0,0,0)"
         result="flood"
         id="feFlood3582" />
      <feComposite
         in="flood"
         in2="SourceGraphic"
         operator="out"
         result="composite1"
         id="feComposite3584" />
      <feGaussianBlur
         in="composite1"
         stdDeviation="3"
         result="blur"
         id="feGaussianBlur3586" />
      <feOffset
         dx="6"
         dy="6"
         result="offset"
         id="feOffset3588" />
      <feComposite
         in="offset"
         in2="SourceGraphic"
         operator="atop"
         result="composite2"
         id="feComposite3590" />
    </filter>
  </defs>
  <g
     id="surface103924"
     transform="translate(-104.47645,-153.38349)">
    <g
       clip-path="url(#clip1)"
       id="g4692"
       style="clip-rule:nonzero">
      <path
         style="fill:none;stroke:#ffffff;stroke-width:1.102;stroke-linecap:butt;stroke-linejoin:miter;stroke-miterlimit:10;stroke-opacity:1"
         d="m 841.89062,35.03 -810.199214,0 0,508.94141 810.199214,0 z m 0,0"
         transform="matrix(1,0,0,-1,0,595.28)"
         id="path4694"
         inkscape:connector-curvature="0" />
    </g>
    <path
       style="fill:#ffffff;fill-opacity:1;fill-rule:nonzero;stroke:none;filter:url(#filter3580)"
       d="m 158,436 515,0 c 0,0 60,-4 64,-71 0,0 10.5,-46 -23,-66.84375 0,0 -44.91797,-36.32422 -92,-0.65625 0,0 7.5,-71.5 -28,-91 0,0 -51,-45.5 -127.5,20 0,0 -16.75,-76.5 -117.33203,-73 0,0 -127.66797,-4 -131.66797,125.5 0,0 -69.00781,-23.83594 -99,15.33203 0,0 -22.5,27.66797 -10.5,82.66797 0,0 2.5,53 50,59"
       id="path4696"
       inkscape:connector-curvature="0" />
    <path
       style="fill:#f0737d;fill-opacity:1;fill-rule:nonzero;stroke:none"
       d="m 296.35547,291.0625 12.94922,-4.64453 c 0,0 -8.13672,-25.25 -30.30469,-24.41797 0,0 -30,1.28125 -30.66797,35.64062 0,0 -0.33203,35.69141 29.33594,36.69141 0,0 24.33203,-0.37891 29.33203,-26.04687 L 293.33203,308 c 0,0 -4.33203,13.66797 -15.33203,13.33203 0,0 -17,1.66797 -17.33203,-23.83203 0,0 -1,-18.5 19.66406,-21.83203 0,0 12.16797,-1.5 16.02344,15.39453"
       id="path4698"
       inkscape:connector-curvature="0" />
    <path
       style="fill:none;stroke:#575759;stroke-width:1;stroke-linecap:butt;stroke-linejoin:miter;stroke-miterlimit:10;stroke-opacity:1"
       d="M -3.125e-5,-0.0012 12.949187,4.643331 c 0,0 -8.136718,25.25 -30.304687,24.417969 0,0 -30,-1.28125 -30.667969,-35.640625 0,0 -0.332031,-35.691406 29.335938,-36.691406 0,0 24.332031,0.378906 29.332031,26.046875 L -3.023469,-16.9387 c 0,0 -4.332031,-13.667969 -15.332031,-13.332031 0,0 -17,-1.667969 -17.332031,23.832031 0,0 -1,18.5 19.664062,21.832031 0,0 12.167969,1.5 16.02343775,-15.394531 z m 0,0"
       transform="matrix(1,0,0,-1,296.3555,291.0613)"
       id="path4700"
       inkscape:connector-curvature="0" />
    <path
       style="fill:#abd170;fill-opacity:1;fill-rule:nonzero;stroke:#575759;stroke-width:1;stroke-linecap:butt;stroke-linejoin:miter;stroke-miterlimit:10;stroke-opacity:1"
       d="m 0,0.00166875 13,0 L 13,33.8337 c 0,0 0.167969,2.554688 3,2.859375 0,0 3.332031,-0.02734 3.332031,-3.191406 l 0,-7.5 11.835938,-0.167969 0,12 c 0,0 -3.5,12.832031 -14.167969,13.167969 0,0 -15.167969,0.664062 -17,-12.5 z m 0,0"
       transform="matrix(1,0,0,-1,318,334.3337)"
       id="path4702"
       inkscape:connector-curvature="0" />
    <path
       style="fill:#f0707d;fill-opacity:1;fill-rule:nonzero;stroke:#575759;stroke-width:1;stroke-linecap:butt;stroke-linejoin:miter;stroke-miterlimit:10;stroke-opacity:1"
       d="m -9.8125e-4,-3e-4 9.81640625,0 0,25.542969 c 0,0 0.125,1.925781 2.261719,2.160156 0,0 2.519531,-0.02344 2.519531,-2.414062 l 0,-5.660157 8.933594,-0.125 0,9.058594 c 0,0 -2.644531,9.6875 -10.695313,9.941406 0,0 -11.449218,0.5 -12.83593725,-9.441406 z m 0,0"
       transform="matrix(1,0,0,-1,371.3877,394.7497)"
       id="path4704"
       inkscape:connector-curvature="0" />
    <path
       style="fill:#23b0e6;fill-opacity:1;fill-rule:nonzero;stroke:none"
       d="m 370,305.77734 26,0 0,-8.27734 c 0,0 -0.83203,-15.5 -14.33203,-16 0,0 -22.66797,-2.5 -23.83594,21.83203 0,0 -2.83203,30.41797 19.08594,29.83594 0,0 17.75,0.83203 19.08203,-18.66797 l -10.66797,0.16797 c 0,0 -1.66016,10 -8.74609,9.83203 0,0 -8.33594,0.125 -6.58594,-18.72266"
       id="path4706"
       inkscape:connector-curvature="0" />
    <path
       style="fill:none;stroke:#575759;stroke-width:1;stroke-linecap:butt;stroke-linejoin:miter;stroke-miterlimit:10;stroke-opacity:1"
       d="m 0,0.00165625 26,0 L 26,8.279 c 0,0 -0.832031,15.5 -14.332031,16 0,0 -22.667969,2.5 -23.835938,-21.832031 0,0 -2.832031,-30.417969 19.085938,-29.835938 0,0 17.75,-0.832031 19.082031,18.667969 L 15.332031,-8.888969 c 0,0 -1.660156,-10 -8.746093,-9.832031 0,0 -8.335938,-0.125 -6.585938,18.72265625 z m 0,0"
       transform="matrix(1,0,0,-1,370,305.779)"
       id="path4708"
       inkscape:connector-curvature="0" />
    <path
       style="fill:#eb3a23;fill-opacity:1;fill-rule:nonzero;stroke:none"
       d="m 568,305.77734 26,0 0,-8.27734 c 0,0 -0.83594,-15.5 -14.33594,-16 0,0 -22.66406,-2.5 -23.82812,21.83203 0,0 -2.83594,30.41797 19.08203,29.83594 0,0 17.74609,0.83203 19.08203,-18.66797 l -10.66406,0.16797 c 0,0 -1.66407,10 -8.75,9.83203 0,0 -8.33594,0.125 -6.58594,-18.72266"
       id="path4710"
       inkscape:connector-curvature="0" />
    <path
       style="fill:none;stroke:#575759;stroke-width:1;stroke-linecap:butt;stroke-linejoin:miter;stroke-miterlimit:10;stroke-opacity:1"
       d="m 0,0.00165625 26,0 L 26,8.279 c 0,0 -0.835938,15.5 -14.335938,16 0,0 -22.664062,2.5 -23.828124,-21.832031 0,0 -2.835938,-30.417969 19.082031,-29.835938 0,0 17.746093,-0.832031 19.082031,18.667969 L 15.335938,-8.888969 c 0,0 -1.664063,-10 -8.75,-9.832031 0,0 -8.335938,-0.125 -6.585938,18.72265625 z m 0,0"
       transform="matrix(1,0,0,-1,568,305.779)"
       id="path4712"
       inkscape:connector-curvature="0" />
    <path
       style="fill:#f0737d;fill-opacity:1;fill-rule:nonzero;stroke:none"
       d="m 561.50391,374.97656 21.24218,0 0,-6.76562 c 0,0 -0.67968,-12.66407 -11.71093,-13.07422 0,0 -18.51954,-2.04297 -19.47266,17.83984 0,0 -2.31641,24.85547 15.58984,24.37891 0,0 14.50391,0.67969 15.59375,-15.25391 l -8.71484,0.13672 c 0,0 -1.35938,8.17188 -7.14844,8.03516 0,0 -6.8125,0.10156 -5.3789,-15.29688"
       id="path4714"
       inkscape:connector-curvature="0" />
    <path
       style="fill:none;stroke:#575759;stroke-width:1;stroke-linecap:butt;stroke-linejoin:miter;stroke-miterlimit:10;stroke-opacity:1"
       d="m 0.00100625,-2.625e-4 21.24218775,0 0,6.7656255 c 0,0 -0.679688,12.664062 -11.710938,13.074218 0,0 -18.519531,2.042969 -19.472656,-17.839843 0,0 -2.316406,-24.855469 15.589844,-24.378907 0,0 14.503906,-0.679687 15.59375,15.253907 L 12.52835,-7.261981 c 0,0 -1.359375,-8.171875 -7.148437,-8.035156 0,0 -6.8125,-0.101563 -5.37890675,15.2968745 z m 0,0"
       transform="matrix(1,0,0,-1,561.5029,374.9763)"
       id="path4716"
       inkscape:connector-curvature="0" />
    <path
       style="fill:#f3eb28;fill-opacity:1;fill-rule:nonzero;stroke:none"
       d="m 435,327 0,6.17187 14.75,1.16016 0,-28.55469 c 0,0 -1.75,-23.79687 -18.5,-24.28906 0,0 -22.75,-2.98828 -25.5,21.26172 0,0 -4.04688,30.19922 14,30.42187 0,0 8.75,0.32813 13,-6.17187 0,0 2.25,-3.75 2.25,0"
       id="path4718"
       inkscape:connector-curvature="0" />
    <path
       style="fill:none;stroke:#575759;stroke-width:1;stroke-linecap:butt;stroke-linejoin:miter;stroke-miterlimit:10;stroke-opacity:1"
       d="m 0,-3e-4 0,-6.171875 14.75,-1.160156 0,28.554687 c 0,0 -1.75,23.796875 -18.5,24.289063 0,0 -22.75,2.988281 -25.5,-21.261719 0,0 -4.046875,-30.199219 14,-30.421875 0,0 8.75,-0.328125 13,6.171875 0,0 2.25,3.75 2.25,0 z m 0,0"
       transform="matrix(1,0,0,-1,435,326.9997)"
       id="path4720"
       inkscape:connector-curvature="0" />
    <path
       style="fill:#faa819;fill-opacity:1;fill-rule:nonzero;stroke:#575759;stroke-width:1;stroke-linecap:butt;stroke-linejoin:miter;stroke-miterlimit:10;stroke-opacity:1"
       d="m 0,-3e-4 c 0,0 5.5,4 10,0 l 0,-13 5.75,0 0,-8.25 -6,-4.25 0,-27 c 0,0 3,-5 6,0 0,0 7,6 7,-0.75 0,0 -1.5,-9.417969 -11.375,-9.082031 0,0 -9.375,-0.917969 -11.375,9.832031 z m 0,0"
       transform="matrix(1,0,0,-1,461,271.9997)"
       id="path4722"
       inkscape:connector-curvature="0" />
    <path
       style="fill:#51c7de;fill-opacity:1;fill-rule:nonzero;stroke:#575759;stroke-width:1;stroke-linecap:butt;stroke-linejoin:miter;stroke-miterlimit:10;stroke-opacity:1"
       d="m -0.0019375,-0.0012375 c 0,0 4.1718755,3.0351565 7.5859375,0 l 0,-9.8554685 4.359375,0 0,-6.257813 -4.550781,-3.222656 0,-20.476562 c 0,0 2.277344,-3.789063 4.550781,0 0,0 5.308594,4.550781 5.308594,-0.566407 0,0 -1.136719,-7.140625 -8.625,-6.890625 0,0 -7.109375,-0.691406 -8.6289065,7.457032 z m 0,0"
       transform="matrix(1,0,0,-1,512.166,350.0222)"
       id="path4724"
       inkscape:connector-curvature="0" />
    <path
       style="fill:#bd4c2e;fill-opacity:1;fill-rule:nonzero;stroke:#575759;stroke-width:1;stroke-linecap:butt;stroke-linejoin:miter;stroke-miterlimit:10;stroke-opacity:1"
       d="m 0,-2.5e-4 c 0,0 4.113281,2.992188 7.480469,0 l 0,-9.726562 4.304687,0 0,-6.171875 -4.492187,-3.179688 0,-20.199219 c 0,0 2.246093,-3.742187 4.492187,0 0,0 5.234375,4.488282 5.234375,-0.5625 0,0 -1.121093,-7.042968 -8.507812,-6.792968 0,0 -7.015625,-0.6875 -8.511719,7.355468 z m 0,0"
       transform="matrix(1,0,0,-1,401.5,350.656)"
       id="path4726"
       inkscape:connector-curvature="0" />
    <path
       style="fill:#f8e6ee;fill-opacity:1;fill-rule:nonzero;stroke:#575759;stroke-width:1;stroke-linecap:butt;stroke-linejoin:miter;stroke-miterlimit:10;stroke-opacity:1"
       d="m 503,260.92844 -12,0 0,49.5 12,0 z m 0,0"
       transform="matrix(1,0,0,-1,0,595.28)"
       id="path4728"
       inkscape:connector-curvature="0" />
    <path
       style="fill:#f8e6ee;fill-opacity:1;fill-rule:nonzero;stroke:none"
       d="m 503,272.25 c 0,3.3125 -2.6875,6 -6,6 -3.3125,0 -6,-2.6875 -6,-6 0,-3.3125 2.6875,-6 6,-6 3.3125,0 6,2.6875 6,6"
       id="path4730"
       inkscape:connector-curvature="0" />
    <path
       style="fill:none;stroke:#575759;stroke-width:1;stroke-linecap:butt;stroke-linejoin:miter;stroke-miterlimit:10;stroke-opacity:1"
       d="m 0,-3e-4 c 0,-3.3125 -2.6875,-6 -6,-6 -3.3125,0 -6,2.6875 -6,6 0,3.3125 2.6875,6 6,6 3.3125,0 6,-2.6875 6,-6 z m 0,0"
       transform="matrix(1,0,0,-1,503,272.2497)"
       id="path4732"
       inkscape:connector-curvature="0" />
    <path
       style="fill:#ee2b23;fill-opacity:1;fill-rule:nonzero;stroke:#575759;stroke-width:1;stroke-linecap:butt;stroke-linejoin:miter;stroke-miterlimit:10;stroke-opacity:1"
       d="m 504.35156,199.42844 -8.85156,0 0,36.51562 8.85156,0 z m 0,0"
       transform="matrix(1,0,0,-1,0,595.28)"
       id="path4734"
       inkscape:connector-curvature="0" />
    <path
       style="fill:#ee2b23;fill-opacity:1;fill-rule:nonzero;stroke:none"
       d="m 504.35156,350.03906 c 0,2.44531 -1.98047,4.42578 -4.42578,4.42578 -2.44141,0 -4.42578,-1.98047 -4.42578,-4.42578 0,-2.4414 1.98437,-4.42578 4.42578,-4.42578 2.44531,0 4.42578,1.98438 4.42578,4.42578"
       id="path4736"
       inkscape:connector-curvature="0" />
    <path
       style="fill:none;stroke:#575759;stroke-width:1;stroke-linecap:butt;stroke-linejoin:miter;stroke-miterlimit:10;stroke-opacity:1"
       d="m -9.375e-4,-2.625e-4 c 0,-2.4453125 -1.9804685,-4.4257815 -4.4257815,-4.4257815 -2.441406,0 -4.425781,1.980469 -4.425781,4.4257815 0,2.4414065 1.984375,4.4257815 4.425781,4.4257815 2.445313,0 4.4257815,-1.984375 4.4257815,-4.4257815 z m 0,0"
       transform="matrix(1,0,0,-1,504.3525,350.0388)"
       id="path4738"
       inkscape:connector-curvature="0" />
    <path
       style="fill:#faae19;fill-opacity:1;fill-rule:nonzero;stroke:#575759;stroke-width:1;stroke-linecap:butt;stroke-linejoin:miter;stroke-miterlimit:10;stroke-opacity:1"
       d="m 544.60156,199.42844 -8.85156,0 0,36.51562 8.85156,0 z m 0,0"
       transform="matrix(1,0,0,-1,0,595.28)"
       id="path4740"
       inkscape:connector-curvature="0" />
    <path
       style="fill:#faae19;fill-opacity:1;fill-rule:nonzero;stroke:none"
       d="m 544.60156,350.03906 c 0,2.44531 -1.98047,4.42578 -4.42578,4.42578 -2.44141,0 -4.42578,-1.98047 -4.42578,-4.42578 0,-2.4414 1.98437,-4.42578 4.42578,-4.42578 2.44531,0 4.42578,1.98438 4.42578,4.42578"
       id="path4742"
       inkscape:connector-curvature="0" />
    <path
       style="fill:none;stroke:#575759;stroke-width:1;stroke-linecap:butt;stroke-linejoin:miter;stroke-miterlimit:10;stroke-opacity:1"
       d="m -9.375e-4,-2.625e-4 c 0,-2.4453125 -1.9804685,-4.4257815 -4.4257815,-4.4257815 -2.441406,0 -4.425781,1.980469 -4.425781,4.4257815 0,2.4414065 1.984375,4.4257815 4.425781,4.4257815 2.445313,0 4.4257815,-1.984375 4.4257815,-4.4257815 z m 0,0"
       transform="matrix(1,0,0,-1,544.6025,350.0388)"
       id="path4744"
       inkscape:connector-curvature="0" />
    <path
       style="fill:#57c7e8;fill-opacity:1;fill-rule:nonzero;stroke:#575759;stroke-width:1;stroke-linecap:butt;stroke-linejoin:miter;stroke-miterlimit:10;stroke-opacity:1"
       d="m 0,-3e-4 14.25,0 4.75,-13.75 5.25,13.75 13.75,0 -11,-46.75 c 0,0 -5.75,-6.25 -11,0 z m 0,0"
       transform="matrix(1,0,0,-1,510,285.9997)"
       id="path4746"
       inkscape:connector-curvature="0" />
    <path
       style="fill:#f3eb28;fill-opacity:1;fill-rule:nonzero;stroke:none"
       d="m 259.5,367.75 c 0,15.1875 -10.6875,27.5 -23.875,27.5 -13.1875,0 -23.875,-12.3125 -23.875,-27.5 0,-15.1875 10.6875,-27.5 23.875,-27.5 13.1875,0 23.875,12.3125 23.875,27.5"
       id="path4748"
       inkscape:connector-curvature="0" />
    <path
       style="fill:none;stroke:#575759;stroke-width:1;stroke-linecap:butt;stroke-linejoin:miter;stroke-miterlimit:10;stroke-opacity:1"
       d="m 0,-3e-4 c 0,-15.1875 -10.6875,-27.5 -23.875,-27.5 -13.1875,0 -23.875,12.3125 -23.875,27.5 0,15.1875 10.6875,27.5 23.875,27.5 C -10.6875,27.4997 0,15.1872 0,-3e-4 Z m 0,0"
       transform="matrix(1,0,0,-1,259.5,367.7497)"
       id="path4750"
       inkscape:connector-curvature="0" />
    <path
       style="fill:#23b0e6;fill-opacity:1;fill-rule:nonzero;stroke:#575759;stroke-width:1;stroke-linecap:butt;stroke-linejoin:miter;stroke-miterlimit:10;stroke-opacity:1"
       d="m 0,-3e-4 0,-45.25 7.5,0 0,18.25 15.75,0 c 0,0 10,2 9.75,12.5 0,0 0.75,12.25 -10.75,14.5 z m 0,0"
       transform="matrix(1,0,0,-1,263,364.9997)"
       id="path4752"
       inkscape:connector-curvature="0" />
    <path
       style="fill:#ee3a23;fill-opacity:1;fill-rule:nonzero;stroke:#575759;stroke-width:1;stroke-linecap:butt;stroke-linejoin:miter;stroke-miterlimit:10;stroke-opacity:1"
       d="m 0,-3e-4 0,-45.25 7.5,0 0,18.25 15.75,0 c 0,0 10,2 9.75,12.5 0,0 0.75,12.25 -10.75,14.5 z m 0,0"
       transform="matrix(1,0,0,-1,298.5,364.9997)"
       id="path4754"
       inkscape:connector-curvature="0" />
    <path
       style="fill:#faa61c;fill-opacity:1;fill-rule:nonzero;stroke:none"
       d="m 366.5,377 c 0,9.80078 -6.76953,17.75 -15.125,17.75 -8.35547,0 -15.125,-7.94922 -15.125,-17.75 0,-9.80469 6.76953,-17.75 15.125,-17.75 8.35547,0 15.125,7.94531 15.125,17.75"
       id="path4756"
       inkscape:connector-curvature="0" />
    <path
       style="fill:none;stroke:#575759;stroke-width:1;stroke-linecap:butt;stroke-linejoin:miter;stroke-miterlimit:10;stroke-opacity:1"
       d="m 0,-3e-4 c 0,-9.800781 -6.769531,-17.75 -15.125,-17.75 -8.355469,0 -15.125,7.949219 -15.125,17.75 0,9.804688 6.769531,17.75 15.125,17.75 C -6.769531,17.7497 0,9.804388 0,-3e-4 Z m 0,0"
       transform="matrix(1,0,0,-1,366.5,376.9997)"
       id="path4758"
       inkscape:connector-curvature="0" />
    <path
       style="fill:#f8e6ee;fill-opacity:1;fill-rule:nonzero;stroke:none"
       d="m 425.33594,359.33594 c 0,0 8.16406,-2.66797 9.83203,0.83203 0,0 -1.33203,11.5 3,12.16406 0,0 5,2.50391 5,-11.83203 0,0 8,-5.66797 9.16797,3.16797 0,0 3.33203,30.33203 -8.16797,31.08203 0,0 -11.50391,1.25 -12.66797,0 -1.16406,-1.25 -5.33203,-3.41797 -5.33203,-9.58203 0,0 -1.5,-19.82813 -0.83203,-25.83203"
       id="path4760"
       inkscape:connector-curvature="0" />
    <path
       style="fill:none;stroke:#575759;stroke-width:1;stroke-linecap:butt;stroke-linejoin:miter;stroke-miterlimit:10;stroke-opacity:1"
       d="m 0.0019375,6.625e-4 c 0,0 8.1640625,2.6679685 9.8320315,-0.8320315 0,0 -1.332032,-11.5 3,-12.164062 0,0 5,-2.503906 5,11.832031 0,0 8,5.667969 9.167968,-3.167969 0,0 3.332032,-30.332031 -8.167968,-31.082031 0,0 -11.503907,-1.25 -12.667969,0 -1.164063,1.25 -5.332031,3.417969 -5.332031,9.582031 0,0 -1.5,19.828125 -0.8320315,25.8320315 z m 0,0"
       transform="matrix(1,0,0,-1,425.334,359.3366)"
       id="path4762"
       inkscape:connector-curvature="0" />
    <path
       style="fill:#a8d16e;fill-opacity:1;fill-rule:nonzero;stroke:none"
       d="m 458.83203,395.30469 c 0,0 7.83594,1.85937 8.83594,-2.64063 0,0 0.082,-7 4.70703,-8.33203 0,0 1.625,0.33203 1.79297,4.33203 0,0 0,7.375 6.5,7.1875 0,0 8.66406,0.14844 8.83203,-2.51953 l 0,-25.66797 c 0,0 -1.5,-10.66406 -13.33203,-10.66406 0,0 -12.66797,-0.83203 -16.16797,7.5 0,0 -2,0.33203 -1.16797,30.80469"
       id="path4764"
       inkscape:connector-curvature="0" />
    <path
       style="fill:none;stroke:#575759;stroke-width:1;stroke-linecap:butt;stroke-linejoin:miter;stroke-miterlimit:10;stroke-opacity:1"
       d="m -9.6875e-4,-2.875e-4 c 0,0 7.83593775,-1.8593745 8.83593775,2.6406255 0,0 0.082031,7 4.707031,8.332031 0,0 1.625,-0.332031 1.792969,-4.332031 0,0 0,-7.375 6.5,-7.1875 0,0 8.664062,-0.148438 8.832031,2.519531 l 0,25.667969 c 0,0 -1.5,10.664062 -13.332031,10.664062 0,0 -12.667969,0.832031 -16.167969,-7.5 0,0 -2,-0.332031 -1.16796875,-30.8046875 z m 0,0"
       transform="matrix(1,0,0,-1,458.833,395.3044)"
       id="path4766"
       inkscape:connector-curvature="0" />
    <path
       style="fill:#19abe3;fill-opacity:1;fill-rule:nonzero;stroke:none"
       d="m 603.5,368.125 c 0,0 3.125,4.375 6.875,1.875 0,0 4.375,-2.25 1,-7.875 0,0 -1.25,-7.21875 -12.625,-7.04688 0,0 -11.5,-0.57812 -11.5,12.92188 0,0 -0.375,12.375 13.875,14.375 0,0 7.75,2.25 5,8.25 0,0 -10.625,5.25 -14,-3.5 0,0 -0.75391,-5.5 -4.875,-4.125 0,0 -6.25,4.25 1.625,12.5 0,0 8.25,7.125 18.5,3.125 0,0 8.75,-1.875 10.125,-13 0,0 -0.625,-7.375 -12.375,-10 0,0 -13.625,-2 -9,-10.125 0,0 6.125,-5.625 7.375,2.625"
       id="path4768"
       inkscape:connector-curvature="0" />
    <path
       style="fill:none;stroke:#575759;stroke-width:1;stroke-linecap:butt;stroke-linejoin:miter;stroke-miterlimit:10;stroke-opacity:1"
       d="m 0,-3e-4 c 0,0 3.125,-4.375 6.875,-1.875 0,0 4.375,2.25 1,7.875 0,0 -1.25,7.21875 -12.625,7.046875 0,0 -11.5,0.578125 -11.5,-12.921875 0,0 -0.375,-12.375 13.875,-14.375 0,0 7.75,-2.25 5,-8.25 0,0 -10.625,-5.25 -14,3.5 0,0 -0.753906,5.5 -4.875,4.125 0,0 -6.25,-4.25 1.625,-12.5 0,0 8.25,-7.125 18.5,-3.125 0,0 8.75,1.875 10.125,13 0,0 -0.625,7.375 -12.375,10 0,0 -13.625,2 -9,10.125 0,0 6.125,5.625 7.375,-2.625 z m 0,0"
       transform="matrix(1,0,0,-1,603.5,368.1247)"
       id="path4770"
       inkscape:connector-curvature="0" />
  </g>
</svg>
